{"title":"Starship.Troopers.3.Marauder.(2008).DVDRip.XviD-NOIR","uid":4296858,"size":807807129,"categoryP":"video","categoryS":"movies","magnet":"?xt=urn:btih:a975e9d029efed9eeec3267670a94ed9a442e968&amp;dn=Starship.Troopers.3.Marauder.%282008%29.DVDRip.XviD-NOIR&amp;tr=udp%3A%2F%2Ftracker.openbittorrent.com%3A80&amp;tr=udp%3A%2F%2Fopen.demonii.com%3A1337&amp;tr=udp%3A%2F%2Ftracker.coppersurfer.tk%3A6969&amp;tr=udp%3A%2F%2Fexodus.desync.com%3A6969","seeders":2,"leechers":0,"uploader":"circlensess","files":3,"time":1216118674,"description":"  _____________________________________________________________________________\n                     888b    888  .d88888b. 8888888 8888888b.   \n                     8888b   888 d88P&quot; &quot;Y88b  888   888   Y88b \n                     88888b  888 888     888  888   888    888 \n                     888Y88b 888 888     888  888   888   d88P \n                     888 Y88b888 888     888  888   8888888P&quot;  \n                     888  Y88888 888     888  888   888 T88b   \n                     888   Y8888 Y88b. .d88P  888   888  T88b  \n                     888    Y888  &quot;Y88888P&quot; 8888888 888   T88b\n  _____________________________________________________________________________\n\n\n\n*******************************************************************************\n                              Starship Troopers 3 Marauder (2008)\n*******************************************************************************\n\n-------------------------------------------------------------------------------\n                              General Information\n-------------------------------------------------------------------------------\nType                             : Movie\nFormat                           : AVI\nFormat/Info                      : Audio Video Interleave\nFile size                        : 788 MiB\nDuration                         : 1h 34mn\nGenre                            : Action | Adventure | Comedy | Drama | \n                                   Fantasy | Horror | Sci-Fi | Thriller | \n                                   Western\nIMDB Link                        : http://www.imdb.com/title/tt0844760/\nRating                           : Awaiting Votes\nSource                           : Dvd NTSC\n\nVideo\nFormat                           : MPEG-4 Visual\nFormat profile                   : Streaming Video@L1\nFormat settings, BVOP            : Yes\nFormat settings, QPel            : No\nFormat settings, GMC             : No warppoints\nFormat settings, Matrix          : Default\nMuxing mode                      : Packet Bitstream\nCodec ID                         : XVID\nCodec ID/Hint                    : XviD\nDuration                         : 1h 36mn\nBit rate                         : 977 Kbps\nWidth                            : 624 pixels\nHeight                           : 320 pixels\nDisplay aspect ratio             : 1.950\nFrame rate                       : 23.976 fps\nResolution                       : 8 bits\nColorimetry                      : 4:2:0\nScan type                        : Progressive\nBits/(Pixel*Frame)               : 0.204\nStream size                      : 675 MiB (88%)\n\nAudio\nFormat                           : MPEG Audio\nFormat version                   : Version 1\nFormat profile                   : Layer 3\nCodec ID                         : 55\nCodec ID/Hint                    : MP3\nDuration                         : 1h 36mn\nBit rate mode                    : Constant\nBit rate                         : 128 Kbps\nChannel(s)                       : 2 channels\nSampling rate                    : 48.0 KHz\nResolution                       : 16 bits\nStream size                      : 88.5 MiB (11%)\nAlignment                        : Aligned on interleaves\nInterleave, duration             : 42 ms (1.00 video frame)\nInterleave, preload duration     : 504 ms\n-------------------------------------------------------------------------------\n                               Description\n-------------------------------------------------------------------------------\nThe war against the Bugs continues! A Federation Starship crash-lands on\nthe distant Alien planet OM-1, stranding beloved leader Sky Marshal Anoke\nand several others, including comely but tough pilot Lola Beck. It&amp;#039;s up to\nColonel/General Johnny Rico, reluctant hero of the original Bug Invasion on\nPlanet P, to lead a team of Troopers on a daring rescue mission.\n -------------------------------------------------------------------------------\n                               Post Information\n-------------------------------------------------------------------------------\nPosted by............: Noir\nPosted on............: 7/14/2008","torrent":{"xt":"urn:btih:a975e9d029efed9eeec3267670a94ed9a442e968","amp;dn":"Starship.Troopers.3.Marauder.%282008%29.DVDRip.XviD-NOIR","amp;tr":["udp%3A%2F%2Ftracker.openbittorrent.com%3A80","udp%3A%2F%2Fopen.demonii.com%3A1337","udp%3A%2F%2Ftracker.coppersurfer.tk%3A6969","udp%3A%2F%2Fexodus.desync.com%3A6969"],"infoHash":"a975e9d029efed9eeec3267670a94ed9a442e968","infoHashBuffer":{"type":"Buffer","data":[169,117,233,208,41,239,237,158,238,195,38,118,112,169,78,217,164,66,233,104]},"announce":[],"urlList":[]}}